<mxfile host="Electron" modified="2023-07-11T11:59:16.399Z" agent="Mozilla/5.0 (Windows NT 10.0; Win64; x64) AppleWebKit/537.36 (KHTML, like Gecko) draw.io/21.6.1 Chrome/112.0.5615.204 Electron/24.6.1 Safari/537.36" etag="9mJamG39Gyci56fFAbu0" version="21.6.1" type="device">
  <diagram name="Page-1" id="KcIJC_EmGOZZR2ic1sTH">
    <mxGraphModel dx="1493" dy="872" grid="1" gridSize="10" guides="1" tooltips="1" connect="1" arrows="1" fold="1" page="1" pageScale="1" pageWidth="850" pageHeight="1100" math="0" shadow="0">
      <root>
        <mxCell id="0" />
        <mxCell id="1" parent="0" />
        <mxCell id="4_TOo_SoydQcKKw3cvo_-2" style="edgeStyle=orthogonalEdgeStyle;rounded=0;orthogonalLoop=1;jettySize=auto;html=1;" edge="1" parent="1" source="4_TOo_SoydQcKKw3cvo_-1" target="4_TOo_SoydQcKKw3cvo_-3">
          <mxGeometry relative="1" as="geometry">
            <mxPoint x="220" y="150" as="targetPoint" />
          </mxGeometry>
        </mxCell>
        <mxCell id="4_TOo_SoydQcKKw3cvo_-1" value="start" style="ellipse;whiteSpace=wrap;html=1;" vertex="1" parent="1">
          <mxGeometry x="180" y="60" width="80" height="40" as="geometry" />
        </mxCell>
        <mxCell id="4_TOo_SoydQcKKw3cvo_-4" style="edgeStyle=orthogonalEdgeStyle;rounded=0;orthogonalLoop=1;jettySize=auto;html=1;" edge="1" parent="1" source="4_TOo_SoydQcKKw3cvo_-3" target="4_TOo_SoydQcKKw3cvo_-5">
          <mxGeometry relative="1" as="geometry">
            <mxPoint x="220" y="260" as="targetPoint" />
          </mxGeometry>
        </mxCell>
        <mxCell id="4_TOo_SoydQcKKw3cvo_-3" value="PIlih Sumber&lt;br&gt;Data" style="shape=parallelogram;perimeter=parallelogramPerimeter;whiteSpace=wrap;html=1;fixedSize=1;" vertex="1" parent="1">
          <mxGeometry x="160" y="150" width="120" height="60" as="geometry" />
        </mxCell>
        <mxCell id="4_TOo_SoydQcKKw3cvo_-11" value="Ya" style="edgeStyle=orthogonalEdgeStyle;rounded=0;orthogonalLoop=1;jettySize=auto;html=1;" edge="1" parent="1" source="4_TOo_SoydQcKKw3cvo_-5" target="4_TOo_SoydQcKKw3cvo_-12">
          <mxGeometry relative="1" as="geometry">
            <mxPoint x="220" y="410" as="targetPoint" />
          </mxGeometry>
        </mxCell>
        <mxCell id="4_TOo_SoydQcKKw3cvo_-19" value="Tidak" style="edgeStyle=orthogonalEdgeStyle;rounded=0;orthogonalLoop=1;jettySize=auto;html=1;exitX=0.977;exitY=0.461;exitDx=0;exitDy=0;exitPerimeter=0;" edge="1" parent="1" source="4_TOo_SoydQcKKw3cvo_-5">
          <mxGeometry relative="1" as="geometry">
            <mxPoint x="220" y="130" as="targetPoint" />
            <mxPoint x="280" y="320" as="sourcePoint" />
            <Array as="points">
              <mxPoint x="273" y="300" />
              <mxPoint x="300" y="300" />
              <mxPoint x="300" y="130" />
            </Array>
          </mxGeometry>
        </mxCell>
        <mxCell id="4_TOo_SoydQcKKw3cvo_-5" value="Sumber Data&amp;nbsp;&lt;br&gt;is file?" style="rhombus;whiteSpace=wrap;html=1;" vertex="1" parent="1">
          <mxGeometry x="165" y="250" width="110" height="100" as="geometry" />
        </mxCell>
        <mxCell id="4_TOo_SoydQcKKw3cvo_-13" style="edgeStyle=orthogonalEdgeStyle;rounded=0;orthogonalLoop=1;jettySize=auto;html=1;" edge="1" parent="1" source="4_TOo_SoydQcKKw3cvo_-12" target="4_TOo_SoydQcKKw3cvo_-14">
          <mxGeometry relative="1" as="geometry">
            <mxPoint x="220" y="530" as="targetPoint" />
          </mxGeometry>
        </mxCell>
        <mxCell id="4_TOo_SoydQcKKw3cvo_-12" value="Baca Data Dari File" style="shape=parallelogram;perimeter=parallelogramPerimeter;whiteSpace=wrap;html=1;fixedSize=1;" vertex="1" parent="1">
          <mxGeometry x="150" y="400" width="140" height="70" as="geometry" />
        </mxCell>
        <mxCell id="4_TOo_SoydQcKKw3cvo_-15" style="edgeStyle=orthogonalEdgeStyle;rounded=0;orthogonalLoop=1;jettySize=auto;html=1;" edge="1" parent="1" source="4_TOo_SoydQcKKw3cvo_-14" target="4_TOo_SoydQcKKw3cvo_-16">
          <mxGeometry relative="1" as="geometry">
            <mxPoint x="220" y="610" as="targetPoint" />
          </mxGeometry>
        </mxCell>
        <mxCell id="4_TOo_SoydQcKKw3cvo_-14" value="Proses Data" style="rounded=0;whiteSpace=wrap;html=1;" vertex="1" parent="1">
          <mxGeometry x="160" y="500" width="120" height="60" as="geometry" />
        </mxCell>
        <mxCell id="4_TOo_SoydQcKKw3cvo_-17" style="edgeStyle=orthogonalEdgeStyle;rounded=0;orthogonalLoop=1;jettySize=auto;html=1;" edge="1" parent="1" source="4_TOo_SoydQcKKw3cvo_-16" target="4_TOo_SoydQcKKw3cvo_-18">
          <mxGeometry relative="1" as="geometry">
            <mxPoint x="220" y="730" as="targetPoint" />
          </mxGeometry>
        </mxCell>
        <mxCell id="4_TOo_SoydQcKKw3cvo_-16" value="Simpan Hasil Data" style="rounded=0;whiteSpace=wrap;html=1;" vertex="1" parent="1">
          <mxGeometry x="160" y="600" width="120" height="60" as="geometry" />
        </mxCell>
        <mxCell id="4_TOo_SoydQcKKw3cvo_-18" value="end" style="ellipse;whiteSpace=wrap;html=1;" vertex="1" parent="1">
          <mxGeometry x="175" y="700" width="90" height="40" as="geometry" />
        </mxCell>
      </root>
    </mxGraphModel>
  </diagram>
</mxfile>
